ffmpeg version 2.8.11-0ubuntu0.16.04.1 Copyright (c) 2000-2017 the FFmpeg developers
  built with gcc 5.4.0 (Ubuntu 5.4.0-6ubuntu1~16.04.4) 20160609
  configuration: --prefix=/usr --extra-version=0ubuntu0.16.04.1 --build-suffix=-ffmpeg --toolchain=hardened --libdir=/usr/lib/x86_64-linux-gnu --incdir=/usr/include/x86_64-linux-gnu --cc=cc --cxx=g++ --enable-gpl --enable-shared --disable-stripping --disable-decoder=libopenjpeg --disable-decoder=libschroedinger --enable-avresample --enable-avisynth --enable-gnutls --enable-ladspa --enable-libass --enable-libbluray --enable-libbs2b --enable-libcaca --enable-libcdio --enable-libflite --enable-libfontconfig --enable-libfreetype --enable-libfribidi --enable-libgme --enable-libgsm --enable-libmodplug --enable-libmp3lame --enable-libopenjpeg --enable-libopus --enable-libpulse --enable-librtmp --enable-libschroedinger --enable-libshine --enable-libsnappy --enable-libsoxr --enable-libspeex --enable-libssh --enable-libtheora --enable-libtwolame --enable-libvorbis --enable-libvpx --enable-libwavpack --enable-libwebp --enable-libx265 --enable-libxvid --enable-libzvbi --enable-openal --enable-opengl --enable-x11grab --enable-libdc1394 --enable-libiec61883 --enable-libzmq --enable-frei0r --enable-libx264 --enable-libopencv
  libavutil      54. 31.100 / 54. 31.100
  libavcodec     56. 60.100 / 56. 60.100
  libavformat    56. 40.101 / 56. 40.101
  libavdevice    56.  4.100 / 56.  4.100
  libavfilter     5. 40.101 /  5. 40.101
  libavresample   2.  1.  0 /  2.  1.  0
  libswscale      3.  1.101 /  3.  1.101
  libswresample   1.  2.101 /  1.  2.101
  libpostproc    53.  3.100 / 53.  3.100
[mp3 @ 0x21988c0] Unknown attached picture mimetype: ('image/png', None), skipping.
[mp3 @ 0x21988c0] Skipping 0 bytes of junk at 17522.
Input #0, mp3, from '008-autor-nieznany-piesn-o-rolandzie.mp3':
  Metadata:
    title           : Autor nieznany, "Pieśń o Rolandzie", 008 (tłum. Tadeusz Boy-Żeleński)
    artist          : Wiktor Korzeniewski
    album           : Wolne Lektury
    genre           : 0
    URL             : http://www.wolnelektury.pl/katalog/lektura/piesn-o-rolandzie
    encoder         : Lavf53.21.0
    date            : 2012
    CONDUCTOR       : Adam Bień
    PROJECT         : Słuchamy Polski
    performer       : Adam Bień
    album_artist    : Fundacja Nowoczesna Polska
    copyright       : 2012 Fundacja Nowoczesna Polska. Licensed to the public under http://creativecommons.org/licenses/by-sa/3.0/deed.pl verify at http://www.wolnelektury.pl/katalog/lektura/piesn-o-rolandzie
    TRANSLATOR      : Tadeusz Boy-Żeleński
    encoded_by      : Adam Bień
    publisher       : Fundacja Nowoczesna Polska
  Duration: 00:01:29.84, start: 0.000000, bitrate: 65 kb/s
    Stream #0:0: Audio: mp3, 44100 Hz, mono, s16p, 64 kb/s
Output #0, null, to 'pipe:':
  Metadata:
    title           : Autor nieznany, "Pieśń o Rolandzie", 008 (tłum. Tadeusz Boy-Żeleński)
    artist          : Wiktor Korzeniewski
    album           : Wolne Lektury
    genre           : 0
    URL             : http://www.wolnelektury.pl/katalog/lektura/piesn-o-rolandzie
    date            : 2012
    CONDUCTOR       : Adam Bień
    PROJECT         : Słuchamy Polski
    performer       : Adam Bień
    album_artist    : Fundacja Nowoczesna Polska
    copyright       : 2012 Fundacja Nowoczesna Polska. Licensed to the public under http://creativecommons.org/licenses/by-sa/3.0/deed.pl verify at http://www.wolnelektury.pl/katalog/lektura/piesn-o-rolandzie
    TRANSLATOR      : Tadeusz Boy-Żeleński
    encoded_by      : Adam Bień
    publisher       : Fundacja Nowoczesna Polska
    encoder         : Lavf56.40.101
    Stream #0:0: Audio: pcm_s16le, 44100 Hz, mono, s16, 705 kb/s
    Metadata:
      encoder         : Lavc56.60.100 pcm_s16le
Stream mapping:
  Stream #0:0 -> #0:0 (mp3 (native) -> pcm_s16le (native))
Press [q] to stop, [?] for help
[silencedetect @ 0x21ab640] silence_start: -0.00367347
[silencedetect @ 0x21ab640] silence_end: 0.600816 | silence_duration: 0.60449
[silencedetect @ 0x21ab640] silence_start: 1.06735
[silencedetect @ 0x21ab640] silence_end: 1.93306 | silence_duration: 0.865714
[silencedetect @ 0x21ab640] silence_start: 3.65347
[silencedetect @ 0x21ab640] silence_end: 4.23184 | silence_duration: 0.578367
[silencedetect @ 0x21ab640] silence_start: 5.48204
[silencedetect @ 0x21ab640] silence_end: 6.55673 | silence_duration: 1.07469
[silencedetect @ 0x21ab640] silence_start: 7.70245
[silencedetect @ 0x21ab640] silence_end: 8.35918 | silence_duration: 0.656735
[silencedetect @ 0x21ab640] silence_start: 11.8559
[silencedetect @ 0x21ab640] silence_end: 12.8 | silence_duration: 0.944082
[silencedetect @ 0x21ab640] silence_start: 15.3563
[silencedetect @ 0x21ab640] silence_end: 15.9347 | silence_duration: 0.578367
[silencedetect @ 0x21ab640] silence_start: 18.6739
[silencedetect @ 0x21ab640] silence_end: 19.3306 | silence_duration: 0.656735
[silencedetect @ 0x21ab640] silence_start: 21.8086
[silencedetect @ 0x21ab640] silence_end: 22.5176 | silence_duration: 0.70898
[silencedetect @ 0x21ab640] silence_start: 24.8127
[silencedetect @ 0x21ab640] silence_end: 25.809 | silence_duration: 0.996327
[silencedetect @ 0x21ab640] silence_start: 30.4812
[silencedetect @ 0x21ab640] silence_end: 31.1641 | silence_duration: 0.682857
[silencedetect @ 0x21ab640] silence_start: 33.9033
[silencedetect @ 0x21ab640] silence_end: 34.4294 | silence_duration: 0.526122
[silencedetect @ 0x21ab640] silence_start: 37.9784
[silencedetect @ 0x21ab640] silence_end: 38.6612 | silence_duration: 0.682857
[silencedetect @ 0x21ab640] silence_start: 44.0649
[silencedetect @ 0x21ab640] silence_end: 44.6955 | silence_duration: 0.630612
[silencedetect @ 0x21ab640] silence_start: 48.349
[silencedetect @ 0x21ab640] silence_end: 48.9273 | silence_duration: 0.578367
[silencedetect @ 0x21ab640] silence_start: 52.4241
[silencedetect @ 0x21ab640] silence_end: 53.0024 | silence_duration: 0.578367
[silencedetect @ 0x21ab640] silence_start: 60.731
[silencedetect @ 0x21ab640] silence_end: 61.6229 | silence_duration: 0.891837
[silencedetect @ 0x21ab640] silence_start: 67.8624
[silencedetect @ 0x21ab640] silence_end: 68.4408 | silence_duration: 0.578367
[silencedetect @ 0x21ab640] silence_start: 71.3629
[silencedetect @ 0x21ab640] silence_end: 72.2024 | silence_duration: 0.839592
[silencedetect @ 0x21ab640] silence_start: 74.8894
[silencedetect @ 0x21ab640] silence_end: 75.4155 | silence_duration: 0.526122
[silencedetect @ 0x21ab640] silence_start: 77.5278
[silencedetect @ 0x21ab640] silence_end: 78.08 | silence_duration: 0.552245
[silencedetect @ 0x21ab640] silence_start: 78.9122
[silencedetect @ 0x21ab640] silence_end: 79.6735 | silence_duration: 0.761224
[silencedetect @ 0x21ab640] silence_start: 81.8118
[silencedetect @ 0x21ab640] silence_end: 82.3902 | silence_duration: 0.578367
[silencedetect @ 0x21ab640] silence_start: 84.2935
[silencedetect @ 0x21ab640] silence_end: 84.8457 | silence_duration: 0.552245
[silencedetect @ 0x21ab640] silence_start: 87.8984
size=N/A time=00:01:29.83 bitrate=N/A    
video:0kB audio:7738kB subtitle:0kB other streams:0kB global headers:0kB muxing overhead: unknown
